<?xml version="1.0" encoding="UTF-8" standalone="no"?>
<!DOCTYPE svg PUBLIC "-//W3C//DTD SVG 1.1//EN" "http://www.w3.org/Graphics/SVG/1.1/DTD/svg11.dtd">
<svg width="100%" height="100%" viewBox="0 0 800 600" version="1.1"
    xmlns="http://www.w3.org/2000/svg"
    xmlns:xlink="http://www.w3.org/1999/xlink" xml:space="preserve"
    xmlns:serif="http://www.serif.com/" style="fill-rule:evenodd;clip-rule:evenodd;stroke-linejoin:round;stroke-miterlimit:2;">
    <g id="box">
        <path d="M-0.15,0.072C-0.105,0.04 -0.055,0.016 0,0C0,0 223.931,-0.5 400,-0.5C626.122,-0.5 800.564,-0.852 800.564,-0.852L800.588,-0.842L800.611,-0.83L800.633,-0.818L800.654,-0.805L800.674,-0.791L800.694,-0.776L800.712,-0.76L800.722,-0.75L800.73,-0.743L800.739,-0.733L800.756,-0.715L800.772,-0.696L800.786,-0.676L800.8,-0.655L800.813,-0.633L800.825,-0.611L800.836,-0.588C800.836,-0.588 800.5,164.892 800.5,300C800.5,434.901 800.824,600.615 800.824,600.615C800.801,600.667 800.771,600.714 800.734,600.754L800.728,600.76L800.711,600.778L800.698,600.789L800.68,600.805L800.66,600.82L800.653,600.825C800.609,600.856 800.559,600.881 800.504,600.896C800.504,600.896 576.069,600.5 400,600.5C173.878,600.5 -0.564,600.852 -0.564,600.852L-0.588,600.842L-0.611,600.83L-0.633,600.818L-0.654,600.805L-0.674,600.791L-0.694,600.776L-0.712,600.76L-0.722,600.75L-0.73,600.743L-0.739,600.733L-0.756,600.715L-0.772,600.696L-0.786,600.676L-0.8,600.655L-0.813,600.633L-0.825,600.611L-0.836,600.588C-0.836,600.588 -0.5,435.108 -0.5,300C-0.5,165.099 -0.321,0.281 -0.321,0.281C-0.298,0.229 -0.267,0.182 -0.23,0.142L-0.224,0.136L-0.207,0.119L-0.195,0.107L-0.176,0.092L-0.157,0.077L-0.15,0.072ZM800,0C794.536,-2.157 620.774,0.5 400,0.5C227.764,0.5 7.582,-1.116 0.504,0.896C-1.88,6.471 0.5,168.694 0.5,300C0.5,431.722 -2.239,594.777 0,600C5.464,602.157 179.226,599.5 400,599.5C572.236,599.5 792.922,602.012 800,600C802.383,594.426 799.5,431.306 799.5,300C799.5,168.278 802.239,5.223 800,0Z"/>
    </g>
</svg>
