<?xml version="1.0" encoding="UTF-8" standalone="no"?>
<!DOCTYPE svg PUBLIC "-//W3C//DTD SVG 1.1//EN" "http://www.w3.org/Graphics/SVG/1.1/DTD/svg11.dtd">
<svg width="100%" height="100%" viewBox="0 0 80 60" version="1.1" xmlns="http://www.w3.org/2000/svg" xmlns:xlink="http://www.w3.org/1999/xlink" xml:space="preserve" xmlns:serif="http://www.serif.com/" style="fill-rule:evenodd;clip-rule:evenodd;stroke-linejoin:round;stroke-miterlimit:2;">
    <g id="Layer1" transform="matrix(0.1,0,0,0.1,0,0)">
        <path id="skewed" d="M49.712,49.591C49.757,49.56 49.807,49.535 49.862,49.519C49.862,49.519 223.931,-0.5 400,-0.5C626.122,-0.5 750.187,49.536 750.187,49.536L750.211,49.546L750.233,49.558L750.255,49.57L750.277,49.583L750.297,49.598L750.316,49.613L750.335,49.629L750.345,49.638L750.353,49.645L750.362,49.655L750.379,49.673L750.394,49.692L750.409,49.712L750.423,49.733L750.436,49.755L750.448,49.777L750.459,49.801C750.459,49.801 800.5,164.892 800.5,300C800.5,434.901 750.459,550.199 750.459,550.199C750.436,550.252 750.405,550.298 750.368,550.338L750.362,550.345L750.345,550.362L750.333,550.373L750.314,550.389L750.295,550.404L750.288,550.409C750.243,550.44 750.193,550.465 750.138,550.481C750.138,550.481 576.069,600.5 400,600.5C173.878,600.5 49.813,550.464 49.813,550.464L49.789,550.454L49.767,550.442L49.745,550.43L49.723,550.417L49.703,550.402L49.684,550.387L49.665,550.371L49.655,550.362L49.647,550.355L49.638,550.345L49.621,550.327L49.606,550.308L49.591,550.288L49.577,550.267L49.564,550.245L49.552,550.223L49.541,550.199C49.541,550.199 -0.5,435.108 -0.5,300C-0.5,165.099 49.541,49.801 49.541,49.801C49.564,49.748 49.595,49.702 49.632,49.662L49.638,49.655L49.655,49.638L49.667,49.627L49.686,49.611L49.705,49.596L49.712,49.591ZM749.623,50.388C744.159,48.231 620.774,0.5 400,0.5C227.764,0.5 57.444,48.403 50.366,50.416C47.982,55.99 0.5,168.694 0.5,300C0.5,431.722 48.138,544.389 50.377,549.612C55.841,551.769 179.226,599.5 400,599.5C572.236,599.5 742.556,551.597 749.634,549.584C752.018,544.01 799.5,431.306 799.5,300C799.5,168.278 751.862,55.611 749.623,50.388Z"/>
    </g>
</svg>
